<?xml version="1.0" encoding="UTF-8" standalone="no"?>
<!-- Created with Inkscape (http://www.inkscape.org/) -->

<svg
   xmlns:dc="http://purl.org/dc/elements/1.1/"
   xmlns:cc="http://creativecommons.org/ns#"
   xmlns:rdf="http://www.w3.org/1999/02/22-rdf-syntax-ns#"
   xmlns:svg="http://www.w3.org/2000/svg"
   xmlns="http://www.w3.org/2000/svg"
   xmlns:sodipodi="http://sodipodi.sourceforge.net/DTD/sodipodi-0.dtd"
   xmlns:inkscape="http://www.inkscape.org/namespaces/inkscape"
   width="1177.6536"
   height="917.08661"
   viewBox="0 0 211.07538 297"
   version="1.1"
   id="svg8"
   inkscape:version="0.92.1 r15371"
   sodipodi:docname="quote_bubble_1.svg">
  <defs
     id="defs2">
    <inkscape:path-effect
       effect="bspline"
       id="path-effect4732"
       is_visible="true"
       weight="33.333333"
       steps="2"
       helper_size="0"
       apply_no_weight="true"
       apply_with_weight="true"
       only_selected="false" />
    <inkscape:path-effect
       effect="bspline"
       id="path-effect4724"
       is_visible="true"
       weight="33.333333"
       steps="2"
       helper_size="0"
       apply_no_weight="true"
       apply_with_weight="true"
       only_selected="false" />
    <inkscape:path-effect
       effect="bspline"
       id="path-effect4720"
       is_visible="true"
       weight="33.333333"
       steps="2"
       helper_size="0"
       apply_no_weight="true"
       apply_with_weight="true"
       only_selected="false" />
    <inkscape:path-effect
       effect="spiro"
       id="path-effect4495"
       is_visible="true" />
    <inkscape:path-effect
       effect="spiro"
       id="path-effect4491"
       is_visible="true" />
    <filter
       inkscape:collect="always"
       style="color-interpolation-filters:sRGB"
       id="filter6398"
       x="-0.014718939"
       width="1.0294379"
       y="-0.023163466"
       height="1.0463269">
      <feGaussianBlur
         inkscape:collect="always"
         stdDeviation="2.3385512"
         id="feGaussianBlur6400" />
    </filter>
  </defs>
  <sodipodi:namedview
     id="base"
     pagecolor="#ffffff"
     bordercolor="#666666"
     borderopacity="1.0"
     inkscape:pageopacity="0.0"
     inkscape:pageshadow="2"
     inkscape:zoom="1"
     inkscape:cx="444.61661"
     inkscape:cy="311.65487"
     inkscape:document-units="mm"
     inkscape:current-layer="layer1"
     showgrid="false"
     inkscape:snap-bbox="true"
     inkscape:snap-smooth-nodes="true"
     inkscape:window-width="1920"
     inkscape:window-height="1017"
     inkscape:window-x="-8"
     inkscape:window-y="-8"
     inkscape:window-maximized="1"
     units="px"
     inkscape:snap-to-guides="false" />
  <metadata
     id="metadata5">
    <rdf:RDF>
      <cc:Work
         rdf:about="">
        <dc:format>image/svg+xml</dc:format>
        <dc:type
           rdf:resource="http://purl.org/dc/dcmitype/StillImage" />
        <dc:title />
      </cc:Work>
    </rdf:RDF>
  </metadata>
  <g
     inkscape:label="Layer 1"
     inkscape:groupmode="layer"
     id="layer1"
     style="display:inline"
     transform="translate(0,1.2116433e-5)">
    <path
       style="opacity:1;fill:#769bbe;fill-opacity:1;stroke:#000000;stroke-width:0.48501027;stroke-opacity:1"
       d="m 105.9379,52.445699 c -50.634257,0 -99.1946689,8.366865 -134.998507,23.259974 -35.803833,14.893116 -55.918232,35.092517 -55.91827,56.154567 3.8e-5,21.06205 20.114437,41.26145 55.91827,56.15456 35.8038381,14.89312 84.36425,23.25998 134.998507,23.25998 36.96985,-0.0248 73.12715,-4.51399 104.08122,-12.92242 l -2.49099,5.23288 c -4.42376,9.10389 -9.39047,17.20545 -16.19467,26.41441 -8.48755,11.48723 -15.99297,19.58305 -27.66386,29.84116 -15.53256,13.65229 -31.31086,23.73699 -50.70579,32.40886 -4.59321,2.05372 -7.80873,3.69685 -7.22832,3.69323 1.77859,-0.0104 12.68278,-1.47417 17.49819,-2.3491 16.91545,-3.07346 30.70626,-7.35065 46.41216,-14.39475 17.73965,-7.95625 32.37412,-17.35352 46.02381,-29.55285 20.4312,-18.26023 39.86854,-39.86126 55.30016,-61.39251 3.45043,-4.29567 7.02942,-8.14206 7.02942,-8.14206 2.97832,-3.6225 5.6084,-7.79365 5.6084,-7.79365 12.51255,-19.04192 11.90376,-24.50723 13.67772,-40.49721 -5e-5,-21.06205 -20.54511,-41.221981 -56.34896,-56.115086 C 205.13257,60.812567 156.57215,52.445703 105.9379,52.445699 Z"
       id="path4487"
       inkscape:connector-curvature="0"
       sodipodi:nodetypes="sscscccsscccsscsccss" />
    <path
       style="fill:none;stroke:#769bbe;stroke-width:0.36500001;stroke-linecap:butt;stroke-linejoin:miter;stroke-miterlimit:4;stroke-dasharray:none;stroke-opacity:1"
       d="m 225.63327,168.67053 c 0.78148,-0.40521 1.56265,-0.81027 2.34352,-1.21516"
       id="path4722"
       inkscape:connector-curvature="0"
       inkscape:path-effect="#path-effect4724"
       inkscape:original-d="m 225.63327,168.67053 c 0.78142,-0.40532 1.5626,-0.81037 2.34352,-1.21516" />
    <path
       style="fill:none;stroke:#000000;stroke-width:0.26458335px;stroke-linecap:butt;stroke-linejoin:miter;stroke-opacity:1"
       d="m 228.05649,167.76002 c -0.0266,-0.10173 -0.0532,-0.20329 -0.0647,-0.28128 -0.0115,-0.078 -0.008,-0.13251 -0.004,-0.1867"
       id="path4730"
       inkscape:connector-curvature="0"
       inkscape:path-effect="#path-effect4732"
       inkscape:original-d="m 228.05649,167.76002 c -0.0263,-0.10181 -0.0529,-0.20336 -0.0797,-0.30465 0.004,-0.0546 0.007,-0.10915 0.0106,-0.16333" />
    <path
       style="opacity:1;fill:#9893da;fill-opacity:1;stroke:#769bbe;stroke-width:0.97547328;stroke-linejoin:bevel;stroke-miterlimit:4;stroke-dasharray:none;stroke-opacity:1"
       d="m 594.0984,902.02026 c 0,-0.20243 6.76171,-3.47333 15.02602,-7.26865 70.03636,-32.16373 116.15855,-62.34342 169.17529,-110.69847 31.72788,-28.93813 54.0924,-54.16247 79.54471,-89.7166 18.48688,-25.82408 32.82142,-50.03728 45.98704,-77.67887 3.07365,-6.45318 5.50355,-11.81798 5.39975,-11.92177 -0.1038,-0.10379 -4.46821,0.92632 -9.69868,2.28915 -64.78738,16.88066 -139.3834,28.70796 -213.51025,33.85233 -35.80486,2.48485 -48.58224,2.86398 -96.52008,2.86398 -48.02217,0 -61.6434,-0.40469 -96.52007,-2.86764 C 312.84514,628.15261 157.12727,580.94291 72.960699,513.53389 62.000534,504.75589 45.014938,488.12973 38.031057,479.34341 23.520236,461.08754 14.080367,442.02031 9.9015992,422.5258 7.8680783,413.03915 7.6989396,394.64042 9.5528671,384.5911 16.318708,347.91646 44.173617,311.13218 88.612189,280.18795 104.47869,269.13952 122.91558,258.16272 139.94622,249.62513 l 7.23499,-3.62696 h 443.12149 443.1215 l 11.0306,5.77545 c 73.8328,38.65733 117.035,83.22991 127.0207,131.04971 2.5148,12.04309 1.8511,29.02369 -2.2246,56.9221 -4.16,28.47438 -13.8104,50.3522 -38.8324,88.03479 -9.1458,13.77345 -12.2623,17.77836 -26.776,34.40858 -3.8485,4.4098 -12.0941,14.85909 -18.3235,23.22063 -47.4142,63.64311 -100.97424,122.5583 -158.22309,174.04289 -49.4723,44.49113 -102.37273,76.80469 -169.82145,103.73338 -33.76888,13.4821 -64.71035,22.58585 -102.47556,30.15086 -21.346,4.27597 -60.7005,9.90595 -60.7005,8.6837 z M 962.98405,511.03063 c -0.2257,-0.56408 -0.39329,-0.39653 -0.42723,0.42722 -0.0304,0.7454 0.13647,1.16304 0.37144,0.92807 0.23498,-0.23496 0.26008,-0.84485 0.0559,-1.35529 z"
       id="path6172"
       inkscape:connector-curvature="0"
       transform="matrix(0.32742188,0,0,0.32742188,-87.25708,-1.2116433e-5)" />
    <path
       inkscape:connector-curvature="0"
       id="path6176"
       d="m 111.04296,299.06408 c 0.25468,-0.25399 3.69278,-1.96138 7.64023,-3.7942 15.3522,-7.12811 28.22817,-14.96201 40.2545,-24.49136 22.35827,-17.71609 39.62638,-38.38165 51.26046,-61.34581 1.91457,-3.77913 3.38596,-6.96622 3.26974,-7.08244 -0.11622,-0.11622 -2.78911,0.43951 -5.93976,1.23497 -17.40532,4.39437 -39.14746,7.85397 -62.68292,9.97409 -12.07434,1.08768 -46.379481,1.43207 -60.195781,0.60431 -5.857512,-0.35093 -12.036847,-0.63806 -13.731848,-0.63806 -1.695007,0 -3.003234,-0.12681 -2.907169,-0.2818 0.09606,-0.155 -1.538483,-0.42439 -3.63232,-0.59866 -21.88259,-1.82125 -51.593254,-7.83229 -72.569078,-14.68212 -31.145591,-10.17083 -52.663469,-23.25559 -64.97952,-39.51325 -2.328118,-3.0732 -6.074571,-10.82172 -7.065157,-14.61236 -0.928565,-3.5533 -1.052199,-12.01722 -0.226282,-15.49101 3.821885,-16.07479 20.082472,-32.080727 44.256769,-43.563681 C -4.9999062,69.959983 32.057237,61.28218 79.78746,57.620281 c 10.220847,-0.784149 49.13291,-0.788615 59.26969,-0.0068 27.98206,2.158155 50.46022,5.680403 71.62327,11.223108 34.95207,9.15412 60.69113,21.893202 75.88118,37.556031 6.70266,6.91125 10.3948,12.74365 12.71183,20.0806 0.80785,2.55806 1.02421,4.3638 1.0263,8.56632 0.003,6.07858 -1.41371,16.32465 -2.88121,20.83701 -2.66001,8.1791 -10.67618,21.55555 -18.32335,30.57582 -2.27394,2.68227 -6.67122,8.20973 -9.77167,12.28326 -17.11173,22.48213 -40.43605,47.09623 -57.56837,60.75173 -24.0654,19.1816 -55.44977,32.86767 -87.26941,38.05639 -10.67377,1.74053 -14.04597,2.12192 -13.44276,1.52033 z"
       style="opacity:0.51000001;fill:#000000;fill-opacity:1;stroke:#769bbe;stroke-width:0.63878262;stroke-linejoin:bevel;stroke-miterlimit:4;stroke-dasharray:none;stroke-opacity:1;filter:url(#filter6398)" />
    <path
       style="opacity:1;fill:#9893da;fill-opacity:1;stroke:#000000;stroke-width:4.91338578;stroke-linejoin:bevel;stroke-miterlimit:4;stroke-dasharray:none;stroke-opacity:1"
       d="m 594.87455,901.58432 c 0.77782,-0.77573 11.27835,-5.99039 23.33452,-11.58813 46.88811,-21.7704 86.21342,-45.69642 122.94383,-74.80061 68.28581,-54.10784 121.02542,-117.22383 156.55782,-187.36013 5.84742,-11.54208 10.34127,-21.27599 9.98631,-21.63095 -0.35494,-0.35495 -8.5184,1.34236 -18.14099,3.77181 -53.15869,13.42113 -119.56275,23.98732 -191.4439,30.46251 -36.87699,3.32195 -141.65052,4.37378 -183.84776,1.84566 -17.8898,-1.0718 -20.96158,-0.78637 -37.08576,-1.94874 -5.84491,-0.42135 -17.31585,-1.01019 -17.31585,-1.01019 -5.91153,-0.21955 -11.36561,-0.51354 -22.80081,-2.00517 -66.14753,-8.62841 -142.2838,-23.59482 -206.3474,-44.5153 C 135.59083,561.74168 69.871709,521.77868 32.256472,472.12513 25.146018,462.73907 13.70374,439.07382 10.678327,427.4966 7.8423387,416.64424 7.4647381,390.79405 9.9872264,380.18451 21.659887,331.08948 71.322382,282.20473 145.15464,247.13391 c 95.306,-45.271 208.48458,-71.77443 354.26049,-82.95847 31.21614,-2.39492 150.05994,-2.40856 181.01934,-0.0208 85.46177,6.59136 154.11375,17.34888 218.74918,34.27721 106.74935,27.95818 185.36065,66.86542 231.75355,114.70227 20.471,21.10808 31.7474,38.92118 38.824,61.32944 2.4673,7.81274 3.1281,13.32775 3.1345,26.16295 0.01,18.56495 -4.3177,49.85813 -8.7997,63.63961 -8.1241,24.98032 -32.6068,65.83419 -55.9625,93.38356 -6.945,8.19209 -20.375,25.07388 -29.8443,37.5151 -52.262,68.66409 -123.4983,143.83958 -175.8232,185.54571 -73.49969,58.58376 -169.35267,100.38326 -266.53506,116.23044 -32.59946,5.31587 -42.89869,6.48069 -41.05639,4.64336 z"
       id="path6174"
       inkscape:connector-curvature="0"
       transform="matrix(0.32742188,0,0,0.32742188,-87.25708,-1.2116433e-5)"
       sodipodi:nodetypes="cssccsssscssssssssscccsccsscc" />
  </g>
</svg>
